{
  "accessors": [
    {
      "bufferView": 2,
      "componentType": 5126,
      "count": 3859,
      "max": [
        1.7959339618682861,
        1.7718340158462524,
        0.7174190282821655
      ],
      "min": [
        1.0128870010375977,
        0.9895949959754944,
        -0.058823999017477036
      ],
      "type": "VEC3"
    },
    {
      "bufferView": 2,
      "byteOffset": 46308,
      "componentType": 5126,
      "count": 3859,
      "max": [
        0.9996845126152039,
        0.9992014765739441,
        0.996885359287262
      ],
      "min": [
        -0.9996845126152039,
        -0.998271107673645,
        -0.9962663650512695
      ],
      "type": "VEC3"
    },
    {
      "bufferView": 3,
      "componentType": 5126,
      "count": 3859,
      "max": [
        0.9997408390045166,
        0.9989772439002991,
        0.9992501735687256,
        1.0
      ],
      "min": [
        -0.9993219971656799,
        -0.9987942576408386,
        -0.9998226761817932,
        -1.0
      ],
      "type": "VEC4"
    },
    {
      "bufferView": 1,
      "componentType": 5126,
      "count": 3859,
      "max": [
        0.9988589882850647,
        0.9989060163497925
      ],
      "min": [
        0.0002690000110305846,
        0.0002690000110305846
      ],
      "type": "VEC2"
    },
    {
      "bufferView": 0,
      "componentType": 5125,
      "count": 16266,
      "type": "SCALAR"
    }
  ],
  "asset": {
    "extras": {
      "author": "Danwolve (https://sketchfab.com/Danwolve)",
      "license": "CC-BY-4.0 (http://creativecommons.org/licenses/by/4.0/)",
      "source": "https://sketchfab.com/3d-models/pokeball-free-0d16e12ec80447c4bd67995c5555b2d6",
      "title": "Pokeball - Free"
    },
    "generator": "Sketchfab-12.67.0",
    "version": "2.0"
  },
  "bufferViews": [
    {
      "buffer": 0,
      "byteLength": 65064,
      "name": "floatBufferViews",
      "target": 34963
    },
    {
      "buffer": 0,
      "byteLength": 30872,
      "byteOffset": 65064,
      "byteStride": 8,
      "name": "floatBufferViews",
      "target": 34962
    },
    {
      "buffer": 0,
      "byteLength": 92616,
      "byteOffset": 95936,
      "byteStride": 12,
      "name": "floatBufferViews",
      "target": 34962
    },
    {
      "buffer": 0,
      "byteLength": 61744,
      "byteOffset": 188552,
      "byteStride": 16,
      "name": "floatBufferViews",
      "target": 34962
    }
  ],
  "buffers": [
    {
      "byteLength": 250296,
      "uri": "scene.bin"
    }
  ],
  "images": [
    {
      "uri": "textures/standardSurface2SG_baseColor.png"
    },
    {
      "uri": "textures/standardSurface2SG_metallicRoughness.png"
    },
    {
      "uri": "textures/standardSurface2SG_emissive.png"
    },
    {
      "uri": "textures/standardSurface2SG_normal.png"
    }
  ],
  "materials": [
    {
      "doubleSided": true,
      "emissiveFactor": [
        1.0,
        1.0,
        1.0
      ],
      "emissiveTexture": {
        "index": 2
      },
      "name": "standardSurface2SG",
      "normalTexture": {
        "index": 3
      },
      "occlusionTexture": {
        "index": 1
      },
      "pbrMetallicRoughness": {
        "baseColorTexture": {
          "index": 0
        },
        "metallicRoughnessTexture": {
          "index": 1
        }
      }
    }
  ],
  "meshes": [
    {
      "name": "Object_0",
      "primitives": [
        {
          "attributes": {
            "NORMAL": 1,
            "POSITION": 0,
            "TANGENT": 2,
            "TEXCOORD_0": 3
          },
          "indices": 4,
          "material": 0,
          "mode": 4
        }
      ]
    }
  ],
  "nodes": [
    {
      "children": [
        1
      ],
      "matrix": [
        1.0,
        0.0,
        0.0,
        0.0,
        0.0,
        2.220446049250313e-16,
        -1.0,
        0.0,
        0.0,
        1.0,
        2.220446049250313e-16,
        0.0,
        0.0,
        0.0,
        0.0,
        1.0
      ],
      "name": "Sketchfab_model"
    },
    {
      "children": [
        2
      ],
      "name": "a2db72b1fbaf43aabb15dd131adc9670.obj.cleaner.materialmerger.gles"
    },
    {
      "mesh": 0,
      "name": "Object_2"
    }
  ],
  "samplers": [
    {
      "magFilter": 9729,
      "minFilter": 9987,
      "wrapS": 10497,
      "wrapT": 10497
    }
  ],
  "scene": 0,
  "scenes": [
    {
      "name": "Sketchfab_Scene",
      "nodes": [
        0
      ]
    }
  ],
  "textures": [
    {
      "sampler": 0,
      "source": 0
    },
    {
      "sampler": 0,
      "source": 1
    },
    {
      "sampler": 0,
      "source": 2
    },
    {
      "sampler": 0,
      "source": 3
    }
  ]
}
