{
  "accessors": [
    {
      "bufferView": 2,
      "componentType": 5126,
      "count": 710,
      "max": [
        8.988327980041504,
        25.040964126586914,
        16.744728088378906
      ],
      "min": [
        -19.85572624206543,
        -8.857425689697266,
        -8.498283386230469
      ],
      "type": "VEC3"
    },
    {
      "bufferView": 2,
      "byteOffset": 8520,
      "componentType": 5126,
      "count": 710,
      "max": [
        0.9967396855354309,
        0.9892464876174927,
        0.9998064637184143
      ],
      "min": [
        -0.9986304044723511,
        -0.9979320168495178,
        -0.990705132484436
      ],
      "type": "VEC3"
    },
    {
      "bufferView": 3,
      "componentType": 5126,
      "count": 710,
      "max": [
        0.9997388124465942,
        0.9998767375946045,
        0.9952775239944458,
        1.0
      ],
      "min": [
        -0.9994440674781799,
        -0.9864211082458496,
        -0.9928781986236572,
        1.0
      ],
      "type": "VEC4"
    },
    {
      "bufferView": 1,
      "componentType": 5126,
      "count": 710,
      "max": [
        0.9978751540184021,
        0.9859511256217957
      ],
      "min": [
        0.0018174507422372699,
        0.0018117791041731834
      ],
      "type": "VEC2"
    },
    {
      "bufferView": 1,
      "byteOffset": 5680,
      "componentType": 5126,
      "count": 710,
      "max": [
        0.9978751540184021,
        0.9859511256217957
      ],
      "min": [
        0.0018174507422372699,
        0.0018117791041731834
      ],
      "type": "VEC2"
    },
    {
      "bufferView": 1,
      "byteOffset": 11360,
      "componentType": 5126,
      "count": 710,
      "max": [
        0.9978751540184021,
        0.9859511256217957
      ],
      "min": [
        0.0018174507422372699,
        0.0018117791041731834
      ],
      "type": "VEC2"
    },
    {
      "bufferView": 1,
      "byteOffset": 17040,
      "componentType": 5126,
      "count": 710,
      "max": [
        0.9978751540184021,
        0.9859511256217957
      ],
      "min": [
        0.0018174507422372699,
        0.0018117791041731834
      ],
      "type": "VEC2"
    },
    {
      "bufferView": 0,
      "componentType": 5125,
      "count": 2913,
      "type": "SCALAR"
    }
  ],
  "asset": {
    "extras": {
      "author": "Rzyas (https://sketchfab.com/rzyas)",
      "license": "CC-BY-4.0 (http://creativecommons.org/licenses/by/4.0/)",
      "source": "https://sketchfab.com/3d-models/fantasy-crystal-stone-66cb87e93046438f9ef539404b6fe870",
      "title": "Fantasy Crystal Stone"
    },
    "generator": "Sketchfab-15.34.0",
    "version": "2.0"
  },
  "bufferViews": [
    {
      "buffer": 0,
      "byteLength": 11652,
      "name": "floatBufferViews",
      "target": 34963
    },
    {
      "buffer": 0,
      "byteLength": 22720,
      "byteOffset": 11652,
      "byteStride": 8,
      "name": "floatBufferViews",
      "target": 34962
    },
    {
      "buffer": 0,
      "byteLength": 17040,
      "byteOffset": 34372,
      "byteStride": 12,
      "name": "floatBufferViews",
      "target": 34962
    },
    {
      "buffer": 0,
      "byteLength": 11360,
      "byteOffset": 51412,
      "byteStride": 16,
      "name": "floatBufferViews",
      "target": 34962
    }
  ],
  "buffers": [
    {
      "byteLength": 62772,
      "uri": "scene.bin"
    }
  ],
  "images": [
    {
      "uri": "textures/Crystal_stone_baseColor.jpeg"
    },
    {
      "uri": "textures/Crystal_stone_metallicRoughness.png"
    },
    {
      "uri": "textures/Crystal_stone_emissive.jpeg"
    },
    {
      "uri": "textures/Crystal_stone_normal.png"
    }
  ],
  "materials": [
    {
      "doubleSided": true,
      "emissiveFactor": [
        1.0,
        1.0,
        1.0
      ],
      "emissiveTexture": {
        "index": 2
      },
      "name": "Crystal_stone",
      "normalTexture": {
        "index": 3
      },
      "occlusionTexture": {
        "index": 1
      },
      "pbrMetallicRoughness": {
        "baseColorTexture": {
          "index": 0
        },
        "metallicRoughnessTexture": {
          "index": 1
        }
      }
    }
  ],
  "meshes": [
    {
      "name": "Crystal_stone_Crystal_stone_0",
      "primitives": [
        {
          "attributes": {
            "NORMAL": 1,
            "POSITION": 0,
            "TANGENT": 2,
            "TEXCOORD_0": 3,
            "TEXCOORD_1": 4,
            "TEXCOORD_2": 5,
            "TEXCOORD_3": 6
          },
          "indices": 7,
          "material": 0,
          "mode": 4
        }
      ]
    }
  ],
  "nodes": [
    {
      "children": [
        1
      ],
      "matrix": [
        1.0,
        0.0,
        0.0,
        0.0,
        0.0,
        2.220446049250313e-16,
        -1.0,
        0.0,
        0.0,
        1.0,
        2.220446049250313e-16,
        0.0,
        0.0,
        0.0,
        0.0,
        1.0
      ],
      "name": "Sketchfab_model"
    },
    {
      "children": [
        2
      ],
      "matrix": [
        0.009999999776482582,
        0.0,
        0.0,
        0.0,
        0.0,
        0.0,
        0.009999999776482582,
        0.0,
        0.0,
        -0.009999999776482582,
        0.0,
        0.0,
        0.0,
        0.0,
        0.0,
        1.0
      ],
      "name": "8a0c81bdf32e40da9f750232684475dd.fbx"
    },
    {
      "children": [
        3
      ],
      "name": "RootNode"
    },
    {
      "children": [
        4
      ],
      "matrix": [
        100.0,
        0.0,
        0.0,
        0.0,
        0.0,
        -1.629206793918314e-05,
        -99.99999999999868,
        0.0,
        0.0,
        99.99999999999868,
        -1.629206793918314e-05,
        0.0,
        710.6146850585938,
        804.3145141601563,
        598.7874755859375,
        1.0
      ],
      "name": "Crystal_stone"
    },
    {
      "mesh": 0,
      "name": "Crystal_stone_Crystal_stone_0"
    }
  ],
  "samplers": [
    {
      "magFilter": 9729,
      "minFilter": 9987,
      "wrapS": 10497,
      "wrapT": 10497
    }
  ],
  "scene": 0,
  "scenes": [
    {
      "name": "Sketchfab_Scene",
      "nodes": [
        0
      ]
    }
  ],
  "textures": [
    {
      "sampler": 0,
      "source": 0
    },
    {
      "sampler": 0,
      "source": 1
    },
    {
      "sampler": 0,
      "source": 2
    },
    {
      "sampler": 0,
      "source": 3
    }
  ]
}
