<?xml version="1.0" encoding="UTF-8"?>
<!DOCTYPE svg PUBLIC "-//W3C//DTD SVG 1.1//EN" "http://www.w3.org/Graphics/SVG/1.1/DTD/svg11.dtd">
<svg xmlns="http://www.w3.org/2000/svg" version="1.1" width="101px" height="101px" style="shape-rendering:geometricPrecision; text-rendering:geometricPrecision; image-rendering:optimizeQuality; fill-rule:evenodd; clip-rule:evenodd" xmlns:xlink="http://www.w3.org/1999/xlink">
<g><path style="opacity:0.995" fill="#7fb4a7" d="M 31.5,-0.5 C 36.8333,-0.5 42.1667,-0.5 47.5,-0.5C 47.5,0.166667 47.8333,0.5 48.5,0.5C 55.3943,4.18732 62.7276,6.35399 70.5,7C 71.4158,6.72158 72.0825,6.22158 72.5,5.5C 78.9303,4.60413 84.7636,5.93746 90,9.5C 91.8461,12.5687 92.8461,15.9021 93,19.5C 95,22.8333 97,26.1667 99,29.5C 99.7466,32.9236 99.58,36.2569 98.5,39.5C 95.7537,42.5136 93.087,45.5136 90.5,48.5C 88.4162,50.993 88.0829,53.6596 89.5,56.5C 90.5365,63.2011 90.5365,69.8678 89.5,76.5C 88.5,76.8333 87.8333,77.5 87.5,78.5C 81.1854,81.4281 75.1854,80.7615 69.5,76.5C 71.7004,72.7605 73.3671,68.7605 74.5,64.5C 73.1486,59.4633 70.9819,54.7967 68,50.5C 66.2547,45.6144 65.588,40.6144 66,35.5C 69.4975,28.6751 74.9975,25.3418 82.5,25.5C 82.8688,30.7626 81.0355,35.0959 77,38.5C 76.3333,39.5 76.3333,40.5 77,41.5C 81.3844,38.7826 84.7177,35.1159 87,30.5C 87.6816,26.8198 86.1816,24.3198 82.5,23C 71.6969,20.4165 63.8636,24.2498 59,34.5C 58.3333,36.8333 58.3333,39.1667 59,41.5C 62.2337,49.2021 65.067,57.0355 67.5,65C 67.3461,68.4712 66.0128,71.3045 63.5,73.5C 62.653,72.0337 61.3197,71.2004 59.5,71C 57.1902,70.5034 54.8568,70.3367 52.5,70.5C 52.5,71.8333 52.5,73.1667 52.5,74.5C 50.9398,69.4598 51.9398,64.7931 55.5,60.5C 52.3553,59.9016 50.022,61.2349 48.5,64.5C 46.9348,66.5093 45.9348,68.8427 45.5,71.5C 36.9532,72.2869 31.2866,68.6202 28.5,60.5C 40.869,55.631 49.369,46.9643 54,34.5C 55.93,27.4661 53.43,23.9661 46.5,24C 38.8589,31.3023 32.3589,39.469 27,48.5C 28.7304,40.8195 31.5637,33.4862 35.5,26.5C 35.5658,24.7336 34.7324,23.7336 33,23.5C 29.05,28.4051 25.8833,33.7385 23.5,39.5C 23.4009,34.198 21.7342,29.5313 18.5,25.5C 16.6243,22.0791 15.6243,18.4124 15.5,14.5C 17.6373,6.02764 22.9707,1.02764 31.5,-0.5 Z"/></g>
<g><path style="opacity:0.89" fill="#3b706e" d="M 55.5,-0.5 C 56.1667,-0.5 56.8333,-0.5 57.5,-0.5C 61.3531,0.723852 65.3531,1.89052 69.5,3C 70.5707,3.85175 71.5707,4.68509 72.5,5.5C 72.0825,6.22158 71.4158,6.72158 70.5,7C 62.7276,6.35399 55.3943,4.18732 48.5,0.5C 51.0593,0.801552 53.3926,0.468218 55.5,-0.5 Z"/></g>
<g><path style="opacity:0.859" fill="#3d706d" d="M 15.5,14.5 C 15.6243,18.4124 16.6243,22.0791 18.5,25.5C 18.5869,38.3255 13.5869,48.6588 3.5,56.5C 2.57546,50.5956 2.24212,44.5956 2.5,38.5C 3.5,38.5 4.5,38.5 5.5,38.5C 5.64945,37.448 5.48278,36.448 5,35.5C 3.98398,36.6341 3.31732,36.3008 3,34.5C 2.58138,35.6721 1.91471,36.6721 1,37.5C 0.376124,33.703 1.37612,30.3697 4,27.5C 4.33333,29.1667 4.66667,30.8333 5,32.5C 6.07356,31.3816 7.24022,30.3816 8.5,29.5C 7.2418,30.0164 6.2418,29.3497 5.5,27.5C 8.69669,24.454 10.8634,20.7873 12,16.5C 12.8159,15.1772 13.9826,14.5106 15.5,14.5 Z"/></g>
<g><path style="opacity:1" fill="#15326d" d="M 69.5,76.5 C 63.5776,80.1945 57.2442,81.1945 50.5,79.5C 49.2905,79.0679 48.2905,78.4013 47.5,77.5C 47.4672,73.1311 47.8005,68.7978 48.5,64.5C 50.022,61.2349 52.3553,59.9016 55.5,60.5C 51.9398,64.7931 50.9398,69.4598 52.5,74.5C 52.9623,75.8799 53.9623,76.5466 55.5,76.5C 58.4156,75.8657 61.0822,74.8657 63.5,73.5C 66.0128,71.3045 67.3461,68.4712 67.5,65C 65.067,57.0355 62.2337,49.2021 59,41.5C 58.3333,39.1667 58.3333,36.8333 59,34.5C 63.8636,24.2498 71.6969,20.4165 82.5,23C 86.1816,24.3198 87.6816,26.8198 87,30.5C 84.7177,35.1159 81.3844,38.7826 77,41.5C 76.3333,40.5 76.3333,39.5 77,38.5C 81.0355,35.0959 82.8688,30.7626 82.5,25.5C 74.9975,25.3418 69.4975,28.6751 66,35.5C 65.588,40.6144 66.2547,45.6144 68,50.5C 70.9819,54.7967 73.1486,59.4633 74.5,64.5C 73.3671,68.7605 71.7004,72.7605 69.5,76.5 Z"/></g>
<g><path style="opacity:1" fill="#15326d" d="M 28.5,60.5 C 26.712,60.2148 25.0453,60.5481 23.5,61.5C 21.1963,66.913 19.1963,72.413 17.5,78C 15.5665,78.7826 14.0665,78.2826 13,76.5C 12.5702,73.8078 12.7369,71.1411 13.5,68.5C 16.3655,65.5872 17.6988,61.9206 17.5,57.5C 18.5764,51.1952 20.5764,45.1952 23.5,39.5C 25.8833,33.7385 29.05,28.4051 33,23.5C 34.7324,23.7336 35.5658,24.7336 35.5,26.5C 31.5637,33.4862 28.7304,40.8195 27,48.5C 32.3589,39.469 38.8589,31.3023 46.5,24C 53.43,23.9661 55.93,27.4661 54,34.5C 49.369,46.9643 40.869,55.631 28.5,60.5 Z"/></g>
<g><path style="opacity:0.982" fill="#c09a7e" d="M 18.5,25.5 C 21.7342,29.5313 23.4009,34.198 23.5,39.5C 20.5764,45.1952 18.5764,51.1952 17.5,57.5C 15.4155,60.8013 14.0822,64.468 13.5,68.5C 12.7369,71.1411 12.5702,73.8078 13,76.5C 14.0665,78.2826 15.5665,78.7826 17.5,78C 19.1963,72.413 21.1963,66.913 23.5,61.5C 25.0453,60.5481 26.712,60.2148 28.5,60.5C 31.2866,68.6202 36.9532,72.2869 45.5,71.5C 45.2594,73.8984 45.9261,75.8984 47.5,77.5C 48.2905,78.4013 49.2905,79.0679 50.5,79.5C 44.9129,86.4118 37.9129,91.4118 29.5,94.5C 13.7722,96.0649 3.77217,89.3983 -0.5,74.5C -0.5,71.5 -0.5,68.5 -0.5,65.5C 0.51728,62.4564 1.85061,59.4564 3.5,56.5C 13.5869,48.6588 18.5869,38.3255 18.5,25.5 Z"/></g>
<g><path style="opacity:1" fill="#7bafa5" d="M 44.5,29.5 C 45.5,29.5 46.5,29.5 47.5,29.5C 46.3479,39.6334 41.6813,47.8 33.5,54C 31.1891,56.1637 28.5225,57.1637 25.5,57C 30.4934,46.8515 36.8267,37.6849 44.5,29.5 Z"/></g>
<g><path style="opacity:0.905" fill="#3b706d" d="M 98.5,39.5 C 98.595,41.7857 99.2616,43.7857 100.5,45.5C 100.5,46.8333 100.5,48.1667 100.5,49.5C 99.1667,50.1667 99.1667,50.8333 100.5,51.5C 100.5,52.1667 100.5,52.8333 100.5,53.5C 99.7934,55.2307 98.7934,56.8974 97.5,58.5C 98.6668,61.1999 98.5001,63.8665 97,66.5C 95.3866,65.3777 94.2199,65.8777 93.5,68C 93.9288,71.0469 93.9288,74.2136 93.5,77.5C 92.5,77.5 91.5,77.5 90.5,77.5C 90.5,76.8333 90.1667,76.5 89.5,76.5C 90.5365,69.8678 90.5365,63.2011 89.5,56.5C 90.2653,53.9039 90.5987,51.2372 90.5,48.5C 93.087,45.5136 95.7537,42.5136 98.5,39.5 Z"/></g>
<g><path style="opacity:1" fill="#aa9e87" d="M 90.5,48.5 C 90.5987,51.2372 90.2653,53.9039 89.5,56.5C 88.0829,53.6596 88.4162,50.993 90.5,48.5 Z"/></g>
<g><path style="opacity:1" fill="#4a5071" d="M 17.5,57.5 C 17.6988,61.9206 16.3655,65.5872 13.5,68.5C 14.0822,64.468 15.4155,60.8013 17.5,57.5 Z"/></g>
<g><path style="opacity:1" fill="#bd997e" d="M 63.5,73.5 C 61.0822,74.8657 58.4156,75.8657 55.5,76.5C 53.9623,76.5466 52.9623,75.8799 52.5,74.5C 52.5,73.1667 52.5,71.8333 52.5,70.5C 54.8568,70.3367 57.1902,70.5034 59.5,71C 61.3197,71.2004 62.653,72.0337 63.5,73.5 Z"/></g>
<g><path style="opacity:1" fill="#505d78" d="M 48.5,64.5 C 47.8005,68.7978 47.4672,73.1311 47.5,77.5C 45.9261,75.8984 45.2594,73.8984 45.5,71.5C 45.9348,68.8427 46.9348,66.5093 48.5,64.5 Z"/></g>
<g><path style="opacity:0.964" fill="#3b6f6d" d="M 69.5,76.5 C 75.1854,80.7615 81.1854,81.4281 87.5,78.5C 87.4346,78.9382 87.6012,79.2716 88,79.5C 88.7083,78.6195 89.5416,77.9528 90.5,77.5C 90.5,79.1667 90.5,80.8333 90.5,82.5C 89.448,82.3505 88.448,82.5172 87.5,83C 83.0075,87.9616 78.5075,92.7949 74,97.5C 72.2215,96.5209 70.5548,96.8542 69,98.5C 67.9895,98.1081 67.4895,97.4415 67.5,96.5C 65.4929,97.1709 63.6595,98.1709 62,99.5C 61.0546,99.0946 60.3879,98.428 60,97.5C 58.2714,97.9743 57.1047,98.9743 56.5,100.5C 54.1667,100.5 51.8333,100.5 49.5,100.5C 48.1667,99.1667 46.8333,99.1667 45.5,100.5C 43.8333,100.5 42.1667,100.5 40.5,100.5C 36.705,98.7685 33.0383,96.7685 29.5,94.5C 37.9129,91.4118 44.9129,86.4118 50.5,79.5C 57.2442,81.1945 63.5776,80.1945 69.5,76.5 Z M 83.5,82.5 C 83.5386,83.7562 83.0386,84.7562 82,85.5C 81.4153,84.0024 81.9153,83.0024 83.5,82.5 Z"/></g>
</svg>
